<?xml version="1.0" encoding="UTF-8" standalone="no"?>
<svg
   xmlns:dc="http://purl.org/dc/elements/1.1/"
   xmlns:cc="http://creativecommons.org/ns#"
   xmlns:rdf="http://www.w3.org/1999/02/22-rdf-syntax-ns#"
   xmlns:svg="http://www.w3.org/2000/svg"
   xmlns="http://www.w3.org/2000/svg"
   xmlns:sodipodi="http://sodipodi.sourceforge.net/DTD/sodipodi-0.dtd"
   xmlns:inkscape="http://www.inkscape.org/namespaces/inkscape"
   version="1.1"
   id="svg2"
   xml:space="preserve"
   width="300.21866"
   height="231.22237"
   viewBox="0 0 300.21866 231.22236"
   sodipodi:docname="Pletacka-IoT.svg"
   inkscape:version="1.0.1 (3bc2e813f5, 2020-09-07)"><metadata
     id="metadata8"><rdf:RDF><cc:Work
         rdf:about=""><dc:format>image/svg+xml</dc:format><dc:type
           rdf:resource="http://purl.org/dc/dcmitype/StillImage" /><dc:title></dc:title></cc:Work></rdf:RDF></metadata><defs
     id="defs6" /><sodipodi:namedview
     pagecolor="#ffffff"
     bordercolor="#666666"
     borderopacity="1"
     objecttolerance="10"
     gridtolerance="10"
     guidetolerance="10"
     inkscape:pageopacity="0"
     inkscape:pageshadow="2"
     inkscape:window-width="1920"
     inkscape:window-height="1015"
     id="namedview4"
     showgrid="false"
     inkscape:zoom="2.3669488"
     inkscape:cx="95.955922"
     inkscape:cy="137.13593"
     inkscape:window-x="0"
     inkscape:window-y="0"
     inkscape:window-maximized="1"
     inkscape:current-layer="g12" /><g
     id="g10"
     inkscape:groupmode="layer"
     inkscape:label="ink_ext_XXXXXX"
     transform="matrix(1.3333333,0,0,-1.3333333,-1695.1726,1038.1221)"><g
       id="g12"
       transform="scale(0.1)"><g
         id="g1106"
         transform="translate(0,19.77)"><path
           d="m 14091.225,6350.8257 c 90.28,0 163.46,73.18 163.46,163.46 0,90.27 -73.18,163.46 -163.46,163.46 -90.27,0 -163.45,-73.19 -163.45,-163.46 0,-90.28 73.18,-163.46 163.45,-163.46 z m 612.97,631.22 c 90.28,0 163.46,73.18 163.46,163.45 0,90.28 -73.18,163.46 -163.46,163.46 -90.27,0 -163.46,-73.18 -163.46,-163.46 0,-90.27 73.19,-163.45 163.46,-163.45 z m -899.02,-387.08 c 0,23.56 -5.08,45.9 -14.06,66.14 l 386.44,149.14 c 27.91,-22.22 63.2,-35.59 101.65,-35.59 90.28,0 163.46,73.18 163.46,163.46 0,89.72 -72.3,162.48 -161.81,163.37 v 365.26 c 10.78,-79.84 79.02,-141.44 161.81,-141.44 90.27,0 163.46,73.18 163.46,163.46 0,90.27 -73.19,163.45 -163.46,163.45 -82.79,0 -151.03,-61.6 -161.81,-141.44 v 255.37 h 535.1 c -28.66,-29.45 -46.38,-69.6 -46.38,-113.93 0,-90.27 73.19,-163.45 163.46,-163.45 11.1,0 21.92,1.12 32.4,3.23 v -601.46 c -19.95,8.68 -41.94,13.55 -65.09,13.55 -90.28,0 -163.46,-73.18 -163.46,-163.46 0,-90.27 73.18,-163.46 163.46,-163.46 19.97,0 39.03,3.76 56.72,10.32 -22.62,-97.74 -91.45,-182.96 -192.1,-221.8 l -45.34,-17.5 c 10.95,21.94 17.26,46.6 17.26,72.79 0,90.28 -73.18,163.46 -163.46,163.46 -90.27,0 -163.45,-73.18 -163.45,-163.46 0,-69.28 43.17,-128.35 104.02,-152.15 l -531.51,-205.13 c 21.97,27.84 35.19,62.91 35.19,101.12 0,90.28 -73.18,163.46 -163.46,163.46 -90.27,0 -163.46,-73.18 -163.46,-163.46 0,-44.76 18.03,-85.29 47.17,-114.81 -83.219,29.44 -153.589,93.62 -187.869,182.44 v 0 c -29.34,76.03 -26.99,156.47 0.55,226.81 26.03,-17.52 57.38,-27.75 91.12,-27.75 90.269,0 163.449,73.18 163.449,163.46"
           style="fill:#009bd6;fill-opacity:1;fill-rule:nonzero;stroke:none"
           id="path54" /><path
           d="m 14279.205,7488.7657 c 0,7.48 0.68,14.79 1.65,22.01 v -44.03 c -0.97,7.22 -1.65,14.53 -1.65,22.02"
           style="fill:#ed114e;fill-opacity:1;fill-rule:nonzero;stroke:none"
           id="path58" /><g
           id="g1092"><path
             d="m 14769.575,7652.2157 c 0,44.33 17.72,84.48 46.38,113.93 h 149.48 v -274.15 c -10.48,-2.11 -21.3,-3.23 -32.4,-3.23 -90.27,0 -163.46,73.18 -163.46,163.45"
             style="fill:#ffff12;fill-opacity:1;fill-rule:nonzero;stroke:none"
             id="path56" /><path
             d="m 14442.665,7652.2157 c 90.27,0 163.46,-73.18 163.46,-163.45 0,-90.28 -73.19,-163.46 -163.46,-163.46 -82.79,0 -151.03,61.6 -161.81,141.44 v 44.03 c 10.78,79.84 79.02,141.44 161.81,141.44"
             style="fill:#ffff12;fill-opacity:1;fill-rule:nonzero;stroke:none"
             id="path60" /><path
             d="m 14704.195,7308.9557 c 90.28,0 163.46,-73.18 163.46,-163.46 0,-90.27 -73.18,-163.45 -163.46,-163.45 -90.27,0 -163.46,73.18 -163.46,163.45 0,90.28 73.19,163.46 163.46,163.46"
             style="fill:#ffff12;fill-opacity:1;fill-rule:nonzero;stroke:none"
             id="path62" /><path
             d="m 14442.665,6938.1157 c 0,-90.28 -73.18,-163.46 -163.46,-163.46 -38.45,0 -73.74,13.37 -101.65,35.59 l 103.3,39.87 v 251.37 c 89.51,-0.89 161.81,-73.65 161.81,-163.37"
             style="fill:#ffff12;fill-opacity:1;fill-rule:nonzero;stroke:none"
             id="path64" /><path
             d="m 13729.445,6637.3057 61.67,23.8 c 8.98,-20.24 14.06,-42.58 14.06,-66.14 0,-90.28 -73.18,-163.46 -163.449,-163.46 -33.74,0 -65.09,10.23 -91.12,27.75 30.9,78.92 93.53,145.13 178.839,178.05"
             style="fill:#ffff12;fill-opacity:1;fill-rule:nonzero;stroke:none"
             id="path66" /><path
             d="m 13854.215,6328.2757 c 90.28,0 163.46,-73.18 163.46,-163.46 0,-38.21 -13.22,-73.28 -35.19,-101.12 l -27.56,-10.63 c -72.52,-27.99 -149.04,-27.09 -217,-3.06 -29.14,29.52 -47.17,70.05 -47.17,114.81 0,90.28 73.19,163.46 163.46,163.46"
             style="fill:#ffff12;fill-opacity:1;fill-rule:nonzero;stroke:none"
             id="path68" /><path
             d="m 14091.225,6677.7457 c 90.28,0 163.46,-73.19 163.46,-163.46 0,-90.28 -73.18,-163.46 -163.46,-163.46 -90.27,0 -163.45,73.18 -163.45,163.46 0,90.27 73.18,163.46 163.45,163.46"
             style="fill:#ffff12;fill-opacity:1;fill-rule:nonzero;stroke:none"
             id="path70" /><path
             d="m 14736.885,6740.6257 c 0,90.28 73.18,163.46 163.46,163.46 23.15,0 45.14,-4.87 65.09,-13.55 v -218.78 h -0.4 c 1.27,-28.6 -1.64,-56.9 -7.97,-84.27 -17.69,-6.56 -36.75,-10.32 -56.72,-10.32 -90.28,0 -163.46,73.19 -163.46,163.46"
             style="fill:#ffff12;fill-opacity:1;fill-rule:nonzero;stroke:none"
             id="path72" /><path
             d="m 14409.975,6420.9757 c 0,90.28 73.18,163.46 163.45,163.46 90.28,0 163.46,-73.18 163.46,-163.46 0,-26.19 -6.31,-50.85 -17.26,-72.79 l -205.63,-79.36 c -60.85,23.8 -104.02,82.87 -104.02,152.15"
             style="fill:#ffff12;fill-opacity:1;fill-rule:nonzero;stroke:none"
             id="path74" /></g></g><g
         id="g1081"
         transform="translate(2469.491,690.4891)"><path
           d="m 11480.304,5966.5866 -551.42,212.81 v 916.03 h -684.58 v -1094.39 h 0.41 c -5.85,-130.74 71.23,-256.35 200.06,-306.07 l 810.05,-312.62 c 161.33,-62.27 342.59,18.04 404.86,179.38 v 0 c 62.26,161.33 -18.05,342.6 -179.38,404.86"
           style="fill:#ec0a68;fill-opacity:1;fill-rule:nonzero;stroke:none"
           id="path20" /><path
           d="m 10928.884,7095.4266 h -684.58 v -227.85 h 684.58 v 227.85"
           style="fill:#5e2590;fill-opacity:1;fill-rule:nonzero;stroke:none"
           id="path22" /><path
           d="m 10928.884,6752.1666 h -684.58 v -227.86 h 684.58 v 227.86"
           style="fill:#5e2590;fill-opacity:1;fill-rule:nonzero;stroke:none"
           id="path24" /><path
           d="m 10928.884,6267.3966 v 141.51 h -684.58 v -227.86 h 638.51 l 46.07,86.35"
           style="fill:#5e2590;fill-opacity:1;fill-rule:nonzero;stroke:none"
           id="path26" /><path
           d="m 10928.884,6179.3966 v 1.65 h -46.07 l -289.84,-543.27 214.16,-82.66 296.98,556.66 -175.23,67.62"
           style="fill:#5e2590;fill-opacity:1;fill-rule:nonzero;stroke:none"
           id="path28" /><path
           d="m 10882.814,6181.0466 h 46.07 v 86.35 z"
           style="fill:#5e2590;fill-opacity:1;fill-rule:nonzero;stroke:none"
           id="path30" /><path
           d="m 11212.584,6069.9066 -296.98,-556.65 214.16,-82.65 296.97,556.65 -214.15,82.65"
           style="fill:#5e2590;fill-opacity:1;fill-rule:nonzero;stroke:none"
           id="path32" /><path
           d="m 11532.604,5940.5266 -294.37,-551.78 16.59,-6.4 c 81.55,-31.48 168.17,-26.47 241.96,6.96 l 179.62,336.67 c -14.64,87.25 -65.95,166.37 -143.8,214.55"
           style="fill:#5e2590;fill-opacity:1;fill-rule:nonzero;stroke:none"
           id="path34" /></g><text
         xml:space="preserve"
         style="font-size:534.119px;line-height:0;font-family:sans-serif;letter-spacing:0px;word-spacing:0px;fill:#009bd6;fill-opacity:1;stroke-width:28.6135;"
         x="13437.482"
         y="-7131.7842"
         id="text1149"
         transform="scale(1,-1)"><tspan
           sodipodi:role="line"
           id="tspan1147"
           x="13437.482"
           y="-7131.7842"
           style="font-style:normal;font-variant:normal;font-weight:normal;font-stretch:normal;font-family:Arial;-inkscape-font-specification:Arial;fill:#009bd6;fill-opacity:1;stroke-width:28.6135;">IoT</tspan></text></g></g></svg>
